HIERARCHY
ROOT hip
{
	OFFSET 0.000000 0.000000 0.000000 
	CHANNELS 6 Xposition Yposition Zposition Xrotation Zrotation Yrotation
	JOINT abdomen
	{
		OFFSET 0.000000 3.402643 0.000000 
		CHANNELS 3 Xrotation Zrotation Yrotation
		JOINT chest
		{
			OFFSET 0.000000 8.438565 -0.680529 
			CHANNELS 3 Xrotation Zrotation Yrotation
			JOINT neck
			{
				OFFSET 0.000000 10.207942 -0.272212 
				CHANNELS 3 Xrotation Zrotation Yrotation
				JOINT head
				{
					OFFSET 0.000000 3.130431 0.000000 
					CHANNELS 3 Xrotation Zrotation Yrotation
					End Site
					{
						OFFSET 0.000000 3.130435 0.000000 
					}
				}
			}
			JOINT lCollar
			{
				OFFSET 3.470700 6.669187 -0.816635 
				CHANNELS 3 Yrotation Zrotation Xrotation
				JOINT lShldr
				{
					OFFSET 3.198488 0.000000 0.000000 
					CHANNELS 3 Zrotation Yrotation Xrotation
					JOINT lForeArm
					{
						OFFSET 10.139888 0.000000 0.000000 
						CHANNELS 3 Yrotation Zrotation Xrotation
						JOINT lHand
						{
							OFFSET 8.370511 0.000000 0.000000 
							CHANNELS 3 Zrotation Yrotation Xrotation
							End Site
							{
								OFFSET 4.083176 0.000000 0.000000 
							}
						}
					}
				}
			}
			JOINT rCollar
			{
				OFFSET -3.470700 6.669187 -0.816635 
				CHANNELS 3 Yrotation Zrotation Xrotation
				JOINT rShldr
				{
					OFFSET -3.198488 0.000000 0.000000 
					CHANNELS 3 Zrotation Yrotation Xrotation
					JOINT rForeArm
					{
						OFFSET -10.139888 0.000000 0.000000 
						CHANNELS 3 Yrotation Zrotation Xrotation
						JOINT rHand
						{
							OFFSET -8.370511 0.000000 0.000000 
							CHANNELS 3 Zrotation Yrotation Xrotation
							End Site
							{
								OFFSET -4.083176 0.000000 0.000000 
							}
						}
					}
				}
			}
		}
	}
	JOINT lThigh
	{
		OFFSET 5.308129 -1.633274 1.361059 
		CHANNELS 3 Xrotation Zrotation Yrotation
		JOINT lShin
		{
			OFFSET -2.041588 -20.007561 0.000000 
			CHANNELS 3 Xrotation Zrotation Yrotation
			JOINT lFoot
			{
				OFFSET 0.000000 -19.190928 -1.224953 
				CHANNELS 3 Xrotation Yrotation Zrotation
				End Site
				{
					OFFSET 0.000000 -2.449906 4.627600 
				}
			}
		}
	}
	JOINT rThigh
	{
		OFFSET -5.308129 -1.633274 1.361059 
		CHANNELS 3 Xrotation Zrotation Yrotation
		JOINT rShin
		{
			OFFSET 2.041588 -20.007561 0.000000 
			CHANNELS 3 Xrotation Zrotation Yrotation
			JOINT rFoot
			{
				OFFSET 0.000000 -19.190928 -1.224953 
				CHANNELS 3 Xrotation Yrotation Zrotation
				End Site
				{
					OFFSET 0.000000 -2.449906 4.627600 
				}
			}
		}
	}
}
MOTION
Frames: 17
Frame Time: 0.033333
-1.180606 50.294651 -12.065324 0.369656 -1.328567 6.769373 0.000000 0.000000 0.000000 1.376846 1.355695 -2.891432 4.016296 -0.185528 -0.810574 3.636476 -0.380810 0.917948 -9.973458 4.461497 2.200547 -56.690155 -12.725263 -23.204876 -86.127693 -1.142360 12.668913 -8.540090 6.680230 -3.792253 4.907136 4.977000 1.425236 34.688313 7.983415 -17.578371 97.751251 0.106309 4.881780 1.074662 -15.383481 -3.799452 4.850103 8.599098 5.453187 5.551291 -3.898704 24.987083 -7.058560 0.602216 -8.325312 -11.117645 -8.725952 -2.534586 8.868917 3.530669 -6.394786 4.017077 0.038921 0.580123 
-1.912006 50.288292 -11.554851 0.184221 -1.347069 7.082014 0.000000 0.000000 0.000000 1.556245 1.764522 -3.370548 3.933150 0.146465 -0.937497 4.207644 -0.068346 1.123046 -10.637015 4.880506 2.438590 -54.554161 -16.049135 -27.244953 -84.890076 -1.990947 12.029906 -6.523805 5.382890 -3.636388 4.566281 5.195465 1.573062 31.187176 9.335117 -18.025455 96.101624 0.208469 2.262080 -2.372019 -14.747377 -3.437097 6.830066 9.242739 6.013879 2.956234 -3.384673 25.002853 -5.728668 0.516736 -8.959968 -10.155735 -8.163635 -2.731459 8.677396 3.942719 -6.832314 3.044724 0.049239 0.668630 
-2.668424 50.268787 -11.065325 0.408407 -1.335914 7.570390 0.000000 0.000000 0.000000 1.283185 2.085620 -3.644782 3.651789 0.517475 -1.142620 5.346391 0.234330 1.123077 -10.971699 5.327363 2.273578 -50.987152 -20.582165 -30.910824 -83.856812 -2.647020 11.252288 -5.416466 4.955121 -3.594367 4.265681 5.188059 1.329514 27.219959 11.501243 -20.271132 94.300850 0.547227 -0.510869 -3.697346 -14.572647 -3.308070 7.753180 9.873409 6.398047 1.464556 -2.760866 24.991943 -4.805192 0.502997 -9.949707 -9.895252 -7.406414 -2.698851 8.870270 4.155635 -8.179523 1.895156 0.035026 0.448557 
-3.449335 50.275463 -10.546206 0.204555 -1.557449 7.874006 0.000000 0.000000 0.000000 1.207253 2.524239 -3.626409 3.729826 0.986122 -1.172038 5.701808 0.458907 1.054732 -10.863925 5.971264 2.306068 -46.144169 -26.437572 -35.374809 -81.730377 -3.109835 12.343451 -4.717639 2.561397 -3.450704 4.103680 5.238609 1.270704 22.061104 13.685596 -22.553379 91.812500 0.891367 -4.150023 -7.400085 -13.478136 -2.996918 8.247752 10.817227 7.215450 1.853356 -2.144231 24.980976 -4.889170 0.586014 -11.337960 -9.357800 -6.108190 -2.239010 9.001696 4.031539 -9.894053 1.174144 0.069841 0.192133 
-4.146799 50.315029 -10.087093 -0.114165 -1.247866 7.882595 0.000000 0.000000 0.000000 1.352109 2.661694 -3.264999 3.764393 1.269292 -1.113441 6.237275 0.458934 0.849660 -10.543831 6.889325 2.496656 -39.808796 -32.906326 -41.405659 -79.064720 -3.815517 11.755396 -3.906405 1.063179 -3.380228 4.195076 4.930029 1.426661 14.901285 16.009941 -26.253016 88.362953 1.401355 -7.849849 -9.959163 -12.485855 -2.842122 8.865983 11.073377 7.438370 2.164961 -1.333041 24.062038 -4.531239 0.642773 -12.657887 -8.701125 -5.498041 -2.177106 9.311513 4.107707 -10.148329 0.275256 0.030298 -0.270341 
-4.768371 50.338047 -9.676430 -0.245024 -0.753980 8.174530 0.000000 0.000000 0.000000 1.290731 2.710443 -3.264993 3.871539 1.318124 -1.084147 6.675494 0.351518 0.908246 -10.345887 7.587241 2.473438 -30.022482 -38.067154 -45.002682 -75.630989 -4.309297 9.830316 -0.560063 -0.777022 -3.420061 3.702142 3.807400 1.474040 6.582074 19.223003 -30.938032 82.994492 1.782000 -10.420867 -11.822047 -10.328387 -2.896640 8.807699 11.005316 6.950202 2.483147 -0.112535 24.011547 -0.977722 0.246609 -14.115161 -8.188437 -5.309230 -2.342771 9.508966 4.277661 -10.648515 -0.284240 0.017837 -0.338179 
-5.333303 50.298435 -9.259767 -0.212784 -0.115878 8.574222 0.000000 0.000000 0.000000 1.004057 2.554296 -3.323538 3.997291 1.357170 -1.103668 7.219340 0.829987 0.849803 -10.022066 8.689653 2.229716 -18.343222 -42.139088 -45.005863 -71.105247 -4.848844 7.034777 1.204510 -1.962200 -3.477564 3.347645 2.732207 1.288153 -4.257679 21.587116 -35.114773 76.627281 1.908555 -17.802750 -17.393570 -8.286111 -2.833840 4.286694 10.936784 5.575294 10.656436 1.066060 24.995241 -0.479239 0.139343 -17.024920 -7.580977 -5.083025 -2.093235 9.394450 3.896448 -10.946685 -1.000494 0.043073 0.373060 
-5.838944 50.294601 -8.877150 -0.371172 0.308674 8.974742 0.000000 0.000000 0.000000 0.944771 2.652072 -3.216224 4.300067 1.669537 -1.230800 7.246171 0.790954 0.713092 -9.185021 10.816337 2.229574 -5.112877 -44.855316 -45.006618 -64.858749 -5.003489 5.744776 1.353653 -3.812639 -3.472086 2.395592 0.721409 1.365999 -15.240173 23.509186 -41.572075 68.574371 2.430243 -26.596378 -17.390175 -6.258174 -3.109436 0.331300 10.819400 4.600314 17.029840 2.000107 24.986147 1.802137 -0.232859 -19.248180 -7.065415 -4.752493 -2.059556 9.643310 3.768026 -12.107211 -1.902548 0.018615 0.175586 
-6.254971 50.306973 -8.511056 -0.699944 0.800033 9.239282 0.000000 0.000000 0.000000 1.040684 2.847580 -3.030879 5.075521 1.894073 -1.260368 6.552137 1.054648 0.498142 -8.180935 12.838091 2.331220 8.785121 -44.549072 -45.012508 -57.855110 -4.996516 4.880422 3.638628 -5.933008 -3.665392 1.459045 -1.904047 1.572853 -25.408407 24.181217 -44.998474 59.867706 3.155889 -32.560295 -17.780479 -4.861447 -3.294003 -3.134828 10.496925 4.055806 22.306684 2.352918 24.997633 3.382766 -0.458304 -19.027195 -6.275945 -4.636075 -2.143357 9.622131 3.725499 -12.482199 -2.337777 0.080879 0.253621 
-6.606664 50.326298 -8.114214 -1.303678 1.349413 9.250750 0.000000 0.000000 0.000000 1.366780 3.072666 -2.738293 6.086655 2.147942 -1.231068 5.786419 1.123035 0.263813 -7.038761 15.232491 2.603400 20.872330 -41.267315 -45.013294 -50.504230 -5.007452 2.739295 5.769795 -8.580869 -3.927795 0.332066 -4.903704 1.941523 -34.921871 23.838675 -44.999134 50.939049 3.822660 -38.317520 -19.803766 -4.608667 -3.316381 -5.457197 10.600911 4.134917 26.232454 1.657725 24.986736 2.814349 -0.323112 -17.656330 -5.453367 -4.487282 -2.213944 10.147941 3.599885 -12.726504 -3.173744 0.028421 -0.009425 
-6.921231 50.364922 -7.730219 -1.549816 2.043049 9.312858 0.000000 0.000000 0.000000 1.397270 3.004742 -2.590985 7.338310 2.606636 -1.407459 4.651856 0.771477 0.254015 -5.428112 18.074329 2.465029 29.336838 -36.956543 -45.011223 -44.189754 -4.903044 4.735515 5.184256 -10.606186 -3.931833 -0.918484 -7.692046 1.970516 -43.260815 22.162201 -44.997360 42.404484 4.538729 -42.192719 -19.471273 -3.460328 -3.497644 -6.079916 10.460576 4.275578 25.757841 0.396352 22.573483 2.511914 -0.254784 -16.710857 -4.802792 -4.675691 -2.394106 10.482795 3.522021 -12.494331 -3.857290 0.076961 -0.137092 
-7.194235 50.369713 -7.338368 -1.549527 2.629036 9.561239 0.000000 0.000000 0.000000 1.119059 3.121834 -2.581742 8.685882 2.723608 -1.554228 4.343575 1.386717 -0.087865 -3.803709 19.996315 1.949169 35.106750 -32.071930 -45.004189 -40.246346 -4.985801 5.153534 7.565212 -11.934366 -4.295956 -2.874844 -11.099234 1.610428 -48.218887 19.774372 -45.000507 38.128593 5.001646 -41.376556 -22.300926 -2.155982 -3.728749 -6.529932 9.954923 4.300947 23.402929 -0.950317 19.059294 1.452036 -0.077989 -13.595852 -4.731717 -4.809332 -2.551779 11.404346 3.436510 -12.758624 -4.814003 0.045827 -0.256343 
-7.449506 50.287998 -6.951860 -1.396218 3.166008 9.810567 0.000000 0.000000 0.000000 0.621407 3.160953 -2.542736 10.509529 3.006284 -1.828267 3.212914 1.503875 -0.370966 -2.336024 21.452686 1.205250 38.417019 -26.997475 -45.004929 -39.194843 -4.998952 2.440360 9.871201 -12.832973 -4.670553 -4.418415 -13.727219 0.972946 -50.775684 16.458975 -44.997547 37.612534 4.992845 -35.490749 -24.575270 0.382550 -4.264002 -5.829362 9.373545 4.305532 18.295502 -2.189175 18.181704 1.018709 -0.005128 -10.657463 -5.464563 -4.917778 -2.662737 13.649343 3.260368 -12.999846 -6.435025 -0.013406 -0.176717 
-7.717253 50.166782 -6.617142 -1.323763 3.569743 9.853629 0.000000 0.000000 0.000000 0.431488 3.161188 -2.444690 12.229396 3.104022 -1.750241 1.529970 2.509555 -0.742759 -0.323559 23.689478 0.586014 38.454250 -22.046350 -45.004490 -42.312511 -4.997990 0.493294 11.961158 -12.979390 -4.971991 -6.117214 -16.228767 0.547043 -50.318703 12.917474 -44.999672 41.721737 4.988472 -27.783194 -27.951010 2.444195 -4.866990 -4.908211 8.976205 4.238866 12.445058 -3.161108 17.793905 2.020639 -0.044188 -8.075734 -6.315034 -4.792270 -2.577224 15.961107 2.881164 -13.716952 -7.919858 0.021818 0.031499 
-7.973879 49.950451 -6.317273 -1.241723 3.899271 9.651562 0.000000 0.000000 0.000000 0.372621 3.025136 -2.190119 13.307782 3.143226 -1.652726 -0.203889 2.792562 -0.977306 1.894531 24.921877 -0.004115 38.287533 -17.314224 -45.007313 -46.969952 -5.002232 -0.079667 16.162140 -13.718796 -5.680334 -7.102903 -17.851398 0.245310 -49.092319 9.171569 -45.000942 47.509789 4.998122 -20.968210 -32.032112 4.293747 -5.585590 -3.660529 8.930768 3.894814 7.008556 -3.525228 14.203114 3.388576 -0.151993 -7.539443 -7.730890 -4.743921 -2.617917 19.136734 2.635073 -13.857223 -9.764815 0.006862 0.283945 
-8.177985 49.792774 -6.052388 -1.217085 4.144310 9.292534 0.000000 0.000000 0.000000 0.525788 2.928323 -1.750254 13.200315 2.811830 -1.251369 -0.582529 3.749049 -1.291412 3.554022 26.470083 -0.261648 36.350643 -12.608904 -45.006489 -53.625343 -4.999455 -2.115299 20.378021 -14.005125 -6.368490 -7.280006 -18.313610 0.266697 -48.059071 5.541269 -45.001419 53.122398 4.987213 -13.241961 -35.841545 7.364134 -6.813615 -2.440730 8.961729 3.946069 2.000929 -3.934664 12.192839 5.090283 -0.228072 -6.237073 -8.490974 -4.694273 -2.679524 21.218241 2.538080 -13.935111 -11.111923 0.019748 0.367644 
-8.380043 49.816116 -5.759909 -0.903260 4.183673 9.224364 0.000000 0.000000 0.000000 0.317418 2.860393 -1.466430 11.995576 2.489979 -0.820811 0.064076 3.700460 -1.125117 5.279451 26.691086 -0.840249 35.879173 -9.527405 -45.004890 -58.248535 -5.002637 -3.004966 26.367590 -19.206810 -8.461107 -7.728158 -18.809179 -0.070420 -46.426311 3.160959 -45.000034 58.399448 4.992860 -5.921415 -40.323154 9.709262 -8.096437 -3.475817 9.216313 3.916333 1.581039 -4.126222 12.028646 6.394736 -0.209248 -5.230832 -8.382565 -4.557044 -2.736246 20.950539 2.692589 -14.383586 -11.357249 0.006067 0.133263 
